<svg xmlns="http://www.w3.org/2000/svg" width="48" height="48" viewBox="0 0 48 48">
    <g fill="none" fill-rule="evenodd">
        <path d="M 0 48 L 48 48 L 48 0 L 0 0 z" />
        <g fill="#375c70">
            <path
                d="M 15.9 36.3 c -0.2 0 -0.4 0.2 -0.4 0.4 c 0 0.2 0.2 0.4 0.4 0.4 h 2.3 c 0.2 0 0.4 -0.2 0.4 -0.4 c 0 -0.2 -0.2 -0.4 -0.4 -0.4 h -2.3 z M 15.6 29.6 c 0.5 0.1 1 0.2 1.5 0.2 c 0.5 0 0.9 -0.1 1.5 -0.2 c 0.2 -0.1 0.4 -0.3 0.3 -0.5 c 0 -0.1 -0.1 -0.2 -0.2 -0.3 c -0.1 -0.1 -0.2 -0.1 -0.3 0 c -0.9 0.3 -1.6 0.3 -2.4 0 c -0.1 0 -0.2 0 -0.3 0 c -0.1 0.1 -0.2 0.1 -0.2 0.3 c 0 0.1 0 0.2 0 0.3 c 0.1 0.1 0.1 0.2 0.3 0.2 M 21 36 c 0.1 0 0.3 -0.1 0.3 -0.2 c 0.1 -0.1 0.1 -0.2 0.1 -0.3 c 0 -0.1 -0.1 -0.2 -0.2 -0.3 c -1.2 -0.9 -2.5 -1.4 -4.1 -1.4 c -1.5 0 -2.9 0.5 -4.1 1.4 c -0.1 0.1 -0.1 0.2 -0.2 0.3 c 0 0.1 0 0.2 0.1 0.3 s 0.2 0.1 0.3 0.2 c 0.1 0 0.2 0 0.3 -0.1 c 1 -0.8 2.2 -1.2 3.5 -1.2 c 1.3 0 2.5 0.4 3.5 1.2 c 0.1 0.1 0.2 0.1 0.3 0.1 M 25.1 21.4 c 0.1 0 0.2 -0.1 0.3 -0.2 c 0.1 -0.1 0.1 -0.2 0.1 -0.3 c 0 -0.2 -0.2 -0.4 -0.4 -0.4 l -0.1 0 c -1.6 0.2 -3.2 -0.3 -4.4 -1.4 c -0.2 -0.2 -0.5 -0.2 -0.6 0 c -0.1 0.1 -0.1 0.2 -0.1 0.3 c 0 0.1 0 0.2 0.1 0.3 c 1.1 1.1 2.7 1.7 4.3 1.7 c 0.3 0 0.5 0 0.8 -0.1 M 14.1 19.1 c -0.1 -0.1 -0.2 -0.1 -0.3 -0.1 c -0.1 0 -0.2 0 -0.3 0.1 c -1.1 1.1 -2.8 1.6 -4.4 1.4 c -0.2 0 -0.5 0.1 -0.5 0.4 c 0 0.2 0.1 0.5 0.4 0.5 c 0.3 0 0.5 0.1 0.8 0.1 c 1.6 0 3.2 -0.6 4.3 -1.7 c 0.2 -0.2 0.2 -0.4 0 -0.6 M 24.1 23.4 c 0 -0.6 -0.7 -1 -1.6 -1 c -0.9 0 -1.6 0.4 -1.6 1 c 0 0.6 0.7 1 1.6 1 c 0.9 0 1.6 -0.4 1.6 -1 M 11.5 24.4 c 0.9 0 1.6 -0.4 1.6 -1 s -0.7 -1 -1.6 -1 c -0.9 0 -1.6 0.4 -1.6 1 c 0 0.6 0.7 1 1.6 1"
                transform="translate(6.9,1.3)" />
            <path
                d="M 33.2 23.2 c -0.3 -0.2 -0.6 -0.3 -0.9 -0.3 c 0.4 -1.8 0.6 -3.6 0.8 -5.3 c 0.4 -4.8 -0.9 -8.9 -3.6 -11.9 C 26.6 2.6 22 0.8 17.1 0.8 c -1.2 0 -2.4 0.1 -3 0.2 c -0.3 -0.1 -0.5 -0.3 -0.7 -0.4 L 13.3 0.5 c -0.1 -0.1 -0.3 0 -0.3 0.1 l -0.3 0.5 c 0 0.1 -0.1 0.1 0 0.2 c 0 0.1 0.1 0.1 0.1 0.2 l 0.1 0 c 0.9 0.6 1.8 1 2.6 1.2 c 0.9 0.2 1.3 0.6 1.5 0.8 l 0 0 c 0.1 0.1 0.2 0.1 0.3 0.1 l 0.5 -0.3 c 0.1 0 0.1 -0.1 0.1 -0.2 s 0 -0.1 0 -0.2 l 0 -0.1 c -0.1 -0.2 -0.6 -0.7 -1.4 -1 c 0.3 0 0.6 0 0.7 0 c 4.7 0 8.9 1.7 11.7 4.6 c 2.6 2.8 3.7 6.5 3.3 11.1 c -0.2 2 -0.5 4 -0.9 6.1 l -0.1 0.3 c 0 0.1 0 0.2 0.1 0.3 c 0.1 0.1 0.1 0.1 0.2 0.1 h 0.4 c 0.1 0 0.1 0 0.2 -0.1 l 0.1 0 c 0.2 -0.2 0.5 -0.2 0.6 -0.1 c 0.3 0.2 0.3 1 0 2 c 0 0 -0.7 2.3 -1 3 c -0.4 1.1 -1 1.8 -1.7 2 l 0 0 l 0 0 c 0 -0.1 0.1 -0.2 0.1 -0.3 c 0 -0.1 0 -0.2 0 -0.2 c 0 -0.1 -0.1 -0.1 -0.2 -0.2 l -0.4 -0.2 c -0.2 -0.1 -0.3 0 -0.4 0.2 c -1.8 4.4 -4 7.8 -7 10.6 c -1.6 1.5 -3.2 1.8 -5 1.8 s -3.4 -0.3 -5 -1.8 c -3 -2.8 -5.2 -6.1 -7 -10.6 c -0.1 -0.2 -0.2 -0.2 -0.4 -0.2 l -0.4 0.2 c -0.1 0 -0.1 0.1 -0.2 0.2 c 0 0.1 0 0.2 0 0.2 c 0 0.1 0.1 0.2 0.1 0.3 c 0 0 0 0 0 0 c -0.7 -0.2 -1.4 -0.9 -1.7 -2 c -0.2 -0.7 -1 -3 -1 -3 c -0.3 -1 -0.3 -1.8 0 -2 c 0.2 -0.1 0.4 -0.1 0.7 0.1 l 0.1 0 c 0.1 0 0.1 0.1 0.2 0 c 0.2 0 0.6 -0.1 0.6 -0.1 c 0.4 -0.1 0.7 -0.4 1 -0.9 c 0.4 -0.7 0.7 -1.8 1.1 -3 c 0.7 -2.5 1.5 -5.5 3.7 -6.9 c 2.5 -1.6 4.6 -1.3 7.1 -1 c 2.4 0.3 5.1 0.7 8.6 -0.6 l 0 0 c 0.3 1.9 1.5 4.4 4 5.7 c 0.2 0.1 0.5 0 0.6 -0.2 c 0.1 -0.1 0.1 -0.2 0 -0.3 c 0 -0.1 -0.1 -0.2 -0.2 -0.3 c -2.4 -1.2 -3.4 -3.5 -3.6 -5.3 c 0 -0.1 -0.1 -0.3 -0.2 -0.3 l -0.4 -0.2 c -0.1 -0.1 -0.3 -0.1 -0.4 0 c -3.4 1.2 -6 0.9 -8.4 0.6 c -2.5 -0.3 -4.9 -0.6 -7.6 1.1 c -2.5 1.6 -3.4 4.8 -4.1 7.5 c -0.3 1.2 -0.6 2.2 -1 2.8 c -0.1 0.2 -0.2 0.3 -0.3 0.4 c -0.4 -2 -0.7 -3.9 -0.9 -5.7 c -0.7 -9.3 4.8 -13 8.2 -14.4 l 0 0 c 0.4 0.2 0.8 0.3 1.2 0.4 c 0.9 0.2 1.3 0.6 1.5 0.8 l 0 0 c 0.1 0.1 0.2 0.1 0.3 0.1 l 0.5 -0.3 c 0.1 0 0.1 -0.1 0.1 -0.2 c 0 -0.1 0 -0.1 0 -0.2 l 0 -0.1 c -0.2 -0.3 -0.8 -1 -2.1 -1.3 c -0.7 -0.1 -1.5 -0.5 -2.2 -1 l -0.1 0 c -0.1 -0.1 -0.3 0 -0.3 0.1 l -0.3 0.5 c 0 0.1 -0.1 0.1 0 0.2 c 0 0.1 0.1 0.1 0.1 0.2 l 0.1 0 c 0.1 0.1 0.2 0.1 0.2 0.1 C 3.4 5.2 0.4 10.7 1 17.7 c 0.1 1.7 0.4 3.5 0.8 5.3 c -0.3 0 -0.6 0.1 -0.9 0.3 c -0.4 0.3 -1.1 1.1 -0.4 3.2 c 0 0 0.7 2.3 1 3 c 0.7 2 2 2.7 3.1 2.7 c 0 0 0.1 0 0.1 0 c 1.7 3.9 3.8 6.9 6.6 9.5 c 2 1.8 3.9 2.1 5.8 2.1 c 1.8 0 3.8 -0.3 5.8 -2.1 c 2.8 -2.6 4.9 -5.6 6.6 -9.5 c 0 0 0.1 0 0.1 0 c 1.1 0 2.4 -0.7 3.1 -2.7 c 0.3 -0.8 1 -3 1 -3 c 0.7 -2.1 0 -2.9 -0.4 -3.2"
                transform="translate(6.9,1.3)" />
        </g>
    </g>
</svg>