<svg width="48" height="48" viewBox="0 0 48 48" fill="none" xmlns="http://www.w3.org/2000/svg">
<path fill-rule="evenodd" clip-rule="evenodd" d="M32.1278 21.7215C32.1278 21.479 31.9308 21.2819 31.6889 21.2819H27.2931C27.0506 21.2819 26.8535 21.479 26.8535 21.7215C26.8535 21.964 27.0506 22.1617 27.2931 22.1617H31.6889C31.9308 22.1617 32.1278 21.964 32.1278 21.7215Z" fill="black"/>
<path fill-rule="evenodd" clip-rule="evenodd" d="M27.8925 24.6434C27.8925 25.2024 28.5935 25.6401 29.4897 25.6401C30.372 25.6401 31.0895 25.1929 31.0895 24.6434C31.0895 24.0927 30.372 23.6443 29.4897 23.6443C28.6093 23.6443 27.8925 24.0927 27.8925 24.6434Z" fill="black"/>
<path fill-rule="evenodd" clip-rule="evenodd" d="M21.1251 21.7215C21.1251 21.479 20.9281 21.2819 20.6862 21.2819H16.2904C16.0479 21.2819 15.8508 21.479 15.8508 21.7215C15.8508 21.964 16.0479 22.1617 16.2904 22.1617H20.6862C20.9281 22.1617 21.1251 21.964 21.1251 21.7215Z" fill="black"/>
<path fill-rule="evenodd" clip-rule="evenodd" d="M16.8898 24.6434C16.8898 25.2024 17.5908 25.6401 18.487 25.6401C19.3693 25.6401 20.0868 25.1929 20.0868 24.6434C20.0868 24.0927 19.3693 23.6443 18.487 23.6443C17.6066 23.6443 16.8898 24.0927 16.8898 24.6434Z" fill="black"/>
<path fill-rule="evenodd" clip-rule="evenodd" d="M27.7055 33.702H20.2946C20.052 33.702 19.855 33.8991 19.855 34.1422C19.855 34.3848 20.052 34.5818 20.2946 34.5818H27.7055C27.948 34.5818 28.1445 34.3848 28.1445 34.1422C28.1445 33.8991 27.948 33.702 27.7055 33.702Z" fill="black"/>
<path fill-rule="evenodd" clip-rule="evenodd" d="M27.7055 35.9138H20.2946C20.052 35.9138 19.855 36.1109 19.855 36.3534C19.855 36.5959 20.052 36.7936 20.2946 36.7936H27.7055C27.948 36.7936 28.1445 36.5959 28.1445 36.3534C28.1445 36.1109 27.948 35.9138 27.7055 35.9138Z" fill="black"/>
<path fill-rule="evenodd" clip-rule="evenodd" d="M27.7055 38.1259H20.2946C20.052 38.1259 19.855 38.3229 19.855 38.5654C19.855 38.808 20.052 39.0056 20.2946 39.0056H27.7055C27.948 39.0056 28.1445 38.808 28.1445 38.5654C28.1445 38.3229 27.948 38.1259 27.7055 38.1259Z" fill="black"/>
<path fill-rule="evenodd" clip-rule="evenodd" d="M11.488 32.3371C11.3478 32.322 11.2304 32.3011 11.1382 32.2778L11.111 32.2689C10.6885 32.1533 9.90847 31.7479 9.42784 30.3237C9.17773 29.5835 8.975 28.9531 8.79436 28.3967L8.44636 27.3243C8.12931 26.3555 8.12679 25.5546 8.44131 25.3323C8.49373 25.295 8.56258 25.2773 8.639 25.2773C8.77858 25.2773 8.94405 25.3361 9.08047 25.4447C9.17584 25.5199 9.20047 25.5773 9.20615 25.5963C9.68489 27.4355 10.4358 29.706 11.2152 31.6715L11.488 32.3371ZM24.0003 43.9013C22.1415 43.9013 20.5739 43.5944 18.964 42.0982C16.3702 39.6887 14.3914 36.8744 12.7386 33.2466C13.2666 33.2207 13.9929 33.1001 15.0104 32.514C15.9419 31.9784 16.7857 31.4409 17.6011 30.9205L17.6491 30.8896C20.0049 29.3851 21.8655 28.1971 24.0003 28.1959C26.1344 28.1971 27.995 29.3851 30.3552 30.8921C31.1826 31.4201 32.0377 31.9664 32.9889 32.514C34.0076 33.1001 34.7339 33.2207 35.2613 33.2466C33.6085 36.875 31.6291 39.6893 29.0358 42.0982C27.4259 43.5944 25.8584 43.9013 24.0003 43.9013ZM39.5542 27.3249L39.2055 28.3973C39.0255 28.9538 38.8222 29.5841 38.5721 30.3243C38.0914 31.7485 37.3114 32.154 36.8851 32.2708L36.8668 32.2771C36.772 32.3018 36.6533 32.322 36.5118 32.3378L36.7847 31.6708C37.564 29.7066 38.3156 27.4373 38.7925 25.6007C38.807 25.554 38.8506 25.5003 38.92 25.4447C39.052 25.3399 39.2163 25.2773 39.3596 25.2773C39.4386 25.2773 39.5074 25.2969 39.5586 25.3329C39.8731 25.5552 39.8706 26.3555 39.5542 27.3249ZM40.175 24.462C39.9236 24.2826 39.611 24.1942 39.2933 24.2062C39.6603 22.4251 39.9173 20.646 40.0544 18.9167C40.4384 14.1091 39.1878 9.99503 36.4379 7.02093C33.5062 3.84914 28.9727 2.03019 24.0003 2.03019C22.7535 2.03019 21.6388 2.15271 21.0022 2.26893C20.7205 2.12114 20.4868 1.98535 20.2689 1.84387L20.2177 1.80977C20.1047 1.73524 19.9487 1.76556 19.8704 1.87861L19.5369 2.36935C19.4984 2.42429 19.4838 2.4944 19.4977 2.56071C19.5104 2.62766 19.5508 2.68766 19.607 2.72366L19.66 2.75777C20.5228 3.32366 21.4638 3.74808 22.2413 3.92366C23.0984 4.11629 23.5222 4.52935 23.699 4.75798L23.7325 4.80029C23.8057 4.89377 23.9339 4.92282 24.0464 4.8685L24.5782 4.59061C24.6426 4.5565 24.6887 4.4965 24.7051 4.4264C24.7222 4.35629 24.7083 4.28114 24.6653 4.21987L24.623 4.16177C24.4733 3.95271 24.0596 3.46387 23.2702 3.11461C23.5443 3.10324 23.8259 3.09629 23.9996 3.09629C28.6803 3.09629 32.9276 4.79019 35.6548 7.74408C38.2329 10.5369 39.3558 14.2683 38.9914 18.8333C38.8297 20.8519 38.5127 22.8963 38.0491 24.9085C37.5824 26.9315 36.508 30.1323 35.5443 32.3738H35.5076C34.8874 32.3738 34.3102 32.2607 33.4272 31.751C32.4836 31.2085 31.6405 30.6698 30.8226 30.1475C28.4466 28.6298 26.3939 27.3192 23.9965 27.3161C21.6078 27.3186 19.5539 28.6291 17.1754 30.1481C16.3594 30.6698 15.5163 31.2085 14.572 31.7517C13.6904 32.2588 13.096 32.3738 12.4929 32.3738H12.4563C11.5904 30.3628 10.6398 27.5965 10.0777 25.4548C10.4093 25.3336 10.7302 25.0304 10.9651 24.6136C11.3794 23.8784 11.6737 22.8136 12.0148 21.5801C12.6963 19.1106 13.5445 16.0367 15.7436 14.651C18.2106 13.0955 20.3409 13.3702 22.8078 13.6891C25.1851 13.9955 27.8788 14.3422 31.3796 13.1232L31.4099 13.1428C31.6758 15.0464 32.8758 17.5462 35.4552 18.8902C35.6712 18.9988 35.9358 18.9155 36.0476 18.7032C36.1019 18.5997 36.112 18.4803 36.0773 18.3672C36.0419 18.2555 35.9649 18.1645 35.86 18.1102C33.4872 16.8736 32.4438 14.5746 32.2582 12.8371C32.2443 12.7051 32.1691 12.5839 32.0567 12.5119L31.6702 12.2668C31.5539 12.1929 31.4144 12.1771 31.2849 12.2239C27.8788 13.458 25.2388 13.1163 22.9083 12.815C20.3864 12.4929 18.0034 12.1872 15.2737 13.9077C12.7885 15.474 11.8891 18.7298 11.1628 21.3565C10.8394 22.5293 10.5596 23.5424 10.1996 24.1809C10.0777 24.3969 9.9571 24.5112 9.87689 24.5706C9.44868 22.619 9.15626 20.6896 9.00784 18.8333C8.26763 9.55229 13.84 5.81082 17.2278 4.40556L17.2474 4.39798C17.6611 4.57798 18.0495 4.70935 18.4013 4.78893C19.2584 4.98219 19.6828 5.39461 19.8596 5.6245L19.8912 5.66429C19.9645 5.75903 20.0946 5.78808 20.2064 5.73377L20.7369 5.4565C20.8013 5.42303 20.8474 5.36303 20.8651 5.29229C20.8834 5.22093 20.8689 5.14514 20.8247 5.08577L20.783 5.02703C20.5708 4.73019 19.9367 4.00829 18.6426 3.71587C17.9927 3.56998 17.1855 3.20303 16.4289 2.70914L16.3784 2.67566C16.2659 2.6005 16.1106 2.62956 16.0304 2.7445L15.6969 3.23461C15.659 3.28956 15.6438 3.35966 15.6577 3.42724C15.6704 3.49293 15.7108 3.55229 15.7676 3.58956L15.82 3.62303C15.8984 3.67419 15.9792 3.72345 16.0582 3.77019C10.348 6.48156 7.39289 11.9952 7.94552 18.9173C8.08131 20.6315 8.33773 22.4106 8.70658 24.2068C8.39079 24.1955 8.07815 24.2826 7.82489 24.4613C7.38847 24.7702 6.75626 25.5963 7.43268 27.6559C7.43268 27.6559 8.15458 29.8885 8.41668 30.6653C9.095 32.6757 10.4592 33.3919 11.5095 33.3919C11.5487 33.3919 11.5872 33.3893 11.6289 33.3856C13.3645 37.2856 15.4645 40.3039 18.2371 42.8807C20.212 44.7155 22.1744 44.9687 24.0003 44.9687C25.8255 44.9687 27.7878 44.7155 29.7634 42.8801C32.5354 40.3032 34.636 37.2849 36.371 33.3856C36.4108 33.3893 36.4499 33.3919 36.4904 33.3919C37.5407 33.3919 38.9049 32.6757 39.5832 30.6647C39.8434 29.8948 40.5666 27.6578 40.5666 27.6578C41.2436 25.5963 40.6114 24.7708 40.175 24.462Z" fill="black"/>
</svg>
